<svg id="Layer_1" data-name="Layer 1" xmlns="http://www.w3.org/2000/svg" xmlns:xlink="http://www.w3.org/1999/xlink" viewBox="0 0 2000 2000"><defs><style>.cls-1{fill:#6100a5;}.cls-2{fill:#ee2a7b;}.cls-3{fill:none;}.cls-4{fill:#00a79d;}.cls-5{fill:url(#radial-gradient);}.cls-6{fill:#f7941d;}.cls-7{font-size:90px;font-family:FSKoopmanBold, FS Koopman;}.cls-7,.cls-8{fill:#fff;}.cls-8{font-size:30px;font-family:Ogonek;}</style><radialGradient id="radial-gradient" cx="1000.14" cy="833.91" fx="758.5874992636526" r="293.76" gradientTransform="translate(249.63 1834.05) rotate(-90) scale(1 0.9)" gradientUnits="userSpaceOnUse"><stop offset="0.15" stop-color="#f9ed32"/><stop offset="0.32" stop-color="#f9e931"/><stop offset="0.51" stop-color="#f9dc2e"/><stop offset="0.69" stop-color="#f8c729"/><stop offset="0.88" stop-color="#f7aa22"/><stop offset="1" stop-color="#f7941d"/></radialGradient></defs><title>Artboard 2</title><path class="cls-1" d="M1229.09,605.12A324,324,0,0,0,676,834.2v331.6a324,324,0,0,0,648,0V834.2A321.84,321.84,0,0,0,1229.09,605.12ZM1314,1165.8a314,314,0,0,1-628,0V834.2a314,314,0,0,1,628,0Z"/><rect class="cls-1" x="706.02" y="540.22" width="587.95" height="919.55" rx="293.98"/><path class="cls-2" d="M1294,1166a293.65,293.65,0,0,1-10.68,78.71c-34.41,124-148.15,215.09-283.16,215.09s-248.74-91-283.15-215.09A293.87,293.87,0,0,1,706.31,1166v-.15q17.13-1.26,34.52-1.26a471.67,471.67,0,0,1,74.66,5.91,462.34,462.34,0,0,1,80.33,20.44q9.42,3.33,18.65,7a458.91,458.91,0,0,1,68.7,34.62q8,4.88,15.72,10.11,7.77-5.23,15.73-10.11a458.54,458.54,0,0,1,68.71-34.62q9.24-3.72,18.65-7a462.57,462.57,0,0,1,80.33-20.44,471.64,471.64,0,0,1,74.65-5.91Q1275.59,1164.54,1294,1166Z"/><path class="cls-3" d="M759.5,1083.09l-36,62.4c1.24,0,2.49-.09,3.74-.12l35.9-62.18Z"/><path class="cls-3" d="M766.91,1085.23l-34.66,60,3.7,0,34.57-59.88C769.32,1085.3,768.11,1085.25,766.91,1085.23Z"/><path class="cls-3" d="M740.93,1145.18l5.64,0,33.31-57.69c-1.86-.06-3.71-.12-5.57-.16Z"/><path class="cls-3" d="M751.38,1080.75l-37.63,65.17,4.64-.22,37.43-64.83Z"/><path class="cls-3" d="M1217.93,1087.53l33.31,57.68,5.63,0-33.37-57.8C1221.64,1087.42,1219.78,1087.47,1217.93,1087.53Z"/><path class="cls-3" d="M1234.69,1083.21l35.9,62.16c1.25,0,2.49.08,3.74.12l-36-62.38C1237.1,1083.13,1235.9,1083.18,1234.69,1083.21Z"/><path class="cls-3" d="M1227.29,1085.34l34.57,59.87,3.7,0-34.66-60Z"/><path class="cls-3" d="M1242,1080.89l37.43,64.81,4.63.22-37.62-65.15Z"/><path class="cls-4" d="M1291.79,1150.71l-42.9-74.29-1.27,0A555.94,555.94,0,0,0,1106.5,1097c-3.2.9-6.37,1.82-9.42,2.75a545.68,545.68,0,0,0-80.5,31.33c-5.44,2.61-10.93,5.39-16.38,8.27v84.47a474.16,474.16,0,0,1,68.23-36c6.52-2.76,12.58-5.2,18.54-7.45a476.44,476.44,0,0,1,80-22.47,486.2,486.2,0,0,1,72.32-8.07c7.33.1,14.66.38,21.88.84l4,.26-.34-.59c1.65.08,3.3.17,4.94.27l4,.26-.34-.59c1.64.08,3.29.17,4.93.27l4,.26-.37-.65c1.93.1,3.87.2,5.8.32Zm-40.55-5.5-33.31-57.68c1.85-.06,3.71-.11,5.57-.15l33.37,57.8Zm10.62,0-34.57-59.87,3.61-.1,34.66,60Zm8.73.16-35.9-62.16c1.21,0,2.41-.08,3.62-.1l36,62.38C1273.08,1145.45,1271.84,1145.4,1270.59,1145.37Zm8.83.33L1242,1080.89l4.44-.12,37.62,65.15Z"/><path class="cls-4" d="M981.23,1131.06a544.11,544.11,0,0,0-80.49-31.32c-1.49-.48-3-.92-4.3-1.29a554.69,554.69,0,0,0-146.25-22l-1.27,0-42.9,74.3,4-.26c1.93-.12,3.86-.22,5.8-.32l-.37.65,4-.26c1.64-.1,3.29-.19,4.93-.27l-.34.59,4-.26c1.64-.1,3.29-.19,4.94-.27l-.34.59,4-.26c7.22-.46,14.54-.74,21.86-.84a486.33,486.33,0,0,1,72.33,8.07h0a476.71,476.71,0,0,1,80,22.47c6,2.25,12.22,4.77,18.54,7.47a476,476,0,0,1,68.25,36v-84.49C992.26,1136.51,986.76,1133.73,981.23,1131.06ZM718.39,1145.7l-4.64.22,37.63-65.17,4.44.12Zm8.83-.33c-1.25,0-2.5.08-3.74.12l36-62.4,3.62.1Zm8.73-.16-3.7,0,34.66-60c1.2,0,2.41.07,3.61.1Zm10.62,0-5.64,0,33.38-57.82c1.86,0,3.71.1,5.57.16Z"/><path class="cls-5" d="M1209.89,628.3a294.17,294.17,0,0,1,61.35,92.25L1069.88,982.69ZM960.29,967.75,885.1,563.6a294.28,294.28,0,0,0-91.67,61.65Zm-49.81,29.89L726.38,727.13a292.68,292.68,0,0,0-19.9,97.42Zm24.91-14.95L790.83,627.86a294.13,294.13,0,0,0-61.37,91.7Zm-39.85,34.87L706.31,837.35v79.46ZM1040,967.75l166.85-342.5a294,294,0,0,0-91.67-61.65Zm49.81,29.89,204.08-170.58a292.7,292.7,0,0,0-20-99.93Zm-209.22,44.83L706.31,934.13v58.54Zm239.11,0L1294,992.67V935.58Zm-10-24.91L1294,919.46V842.09Zm184.25-8.3-164.32,58.11L1294,1056Zm-423.35,58.11-164.32-58.11V1056ZM904,1089.22a555.66,555.66,0,0,1,82,31.94c4.27,2.06,8.58,4.22,12.88,6.44,4.36-2.26,8.69-4.43,12.91-6.46a557.76,557.76,0,0,1,82.11-32c3.1-.94,6.35-1.89,9.61-2.8,3.72-1.05,7.45-2,11.19-3a117.93,117.93,0,0,0-233.52-.51q9.21,2.36,18.32,5C900.85,1088.27,902.42,1088.73,904,1089.22Zm96.54-549h-.75A293,293,0,0,0,886.44,563l.14.57,8.69,35.18,91.56,316.64,13.69,47.34,13-45.82L1113.84,563A293,293,0,0,0,1000.52,540.23Z"/><polygon class="cls-6" points="895.27 598.78 885.1 563.61 886.58 563.61 895.27 598.78"/><text class="cls-7" transform="translate(808.97 1322.25)">RUCHED</text><text class="cls-8" transform="translate(873.52 1364.02)">EDUCATIONAL</text></svg>